<?xml version="1.0" encoding="UTF-8" standalone="no"?>
<svg
   width="2048"
   height="512"
   version="1.1"
   id="svg13"
   sodipodi:docname="duplistatus_banner.svg"
   inkscape:export-filename="a-dashboard-icon-for-a-backup-tool-.png"
   inkscape:export-xdpi="96"
   inkscape:export-ydpi="96"
   inkscape:version="1.4.2 (f4327f4, 2025-05-13)"
   xmlns:inkscape="http://www.inkscape.org/namespaces/inkscape"
   xmlns:sodipodi="http://sodipodi.sourceforge.net/DTD/sodipodi-0.dtd"
   xmlns="http://www.w3.org/2000/svg"
   xmlns:svg="http://www.w3.org/2000/svg"
   xmlns:rdf="http://www.w3.org/1999/02/22-rdf-syntax-ns#"
   xmlns:cc="http://creativecommons.org/ns#"
   xmlns:dc="http://purl.org/dc/elements/1.1/">
  <title
     id="title13">duplistatus Logo</title>
  <defs
     id="defs13">
    <rect
       x="585.00424"
       y="78.957627"
       width="1451.7655"
       height="356.79593"
       id="rect7" />
  </defs>
  <sodipodi:namedview
     id="namedview13"
     pagecolor="#ffffff"
     bordercolor="#000000"
     borderopacity="0.25"
     inkscape:showpageshadow="2"
     inkscape:pageopacity="0.0"
     inkscape:pagecheckerboard="true"
     inkscape:deskcolor="#d1d1d1"
     inkscape:zoom="0.28056154"
     inkscape:cx="912.45578"
     inkscape:cy="638.00619"
     inkscape:window-width="1591"
     inkscape:window-height="1000"
     inkscape:window-x="2037"
     inkscape:window-y="0"
     inkscape:window-maximized="0"
     inkscape:current-layer="g2"
     showgrid="false">
    <inkscape:grid
       id="grid7"
       units="px"
       originx="0"
       originy="0"
       spacingx="1"
       spacingy="1"
       empcolor="#0099e5"
       empopacity="0.30196078"
       color="#0099e5"
       opacity="0.14901961"
       empspacing="5"
       enabled="true"
       visible="false" />
  </sodipodi:namedview>
  <metadata
     id="metadata13">
    <rdf:RDF>
      <cc:Work
         rdf:about="">
        <dc:title>duplistatus Logo</dc:title>
      </cc:Work>
    </rdf:RDF>
  </metadata>
  <g
     id="g2"
     transform="translate(15.670864)"
     inkscape:label="banner">
    <text
       xml:space="preserve"
       id="text7"
       style="font-style:normal;font-variant:normal;font-weight:normal;font-stretch:normal;font-size:266.667px;font-family:Ubuntu;-inkscape-font-specification:Ubuntu;text-align:start;writing-mode:lr-tb;direction:ltr;white-space:pre;shape-inside:url(#rect7);display:inline;fill:#155dfc;fill-opacity:1;stroke:none;stroke-width:0.3;stroke-miterlimit:0;stroke-opacity:1"
       transform="translate(-42.731788,7.178123)"
       inkscape:label="name"><tspan
         x="585.00391"
         y="327.62192"
         id="tspan1">duplistatus</tspan></text>
    <g
       id="g3"
       transform="matrix(0.77875826,0,0,0.77875826,117.30041,-253.85794)">
      <rect
         style="fill:#000000;stroke-width:0.449314;stroke-miterlimit:0"
         id="rect1"
         width="408.77359"
         height="326.22754"
         x="-16.546785"
         y="461.73511" />
      <path
         fill="#4EA4B6"
         d="m 2.88231,451.13857 c 8.571406,-0.31018 17.25916,-0.003 25.844471,-0.002 l 331.282609,-0.0145 c 6.3542,2.5e-4 12.88297,-0.22273 19.20806,0.42413 27.18592,2.78074 31.94296,26.04858 31.94936,47.90511 l -0.01,179.44606 c 10e-4,5.70256 1.42618,15.40538 -2.73232,20.00883 -3.45991,3.82737 -10.00649,4.07345 -13.65118,0.35839 -4.45082,-4.53657 -2.77394,-13.18443 -2.76133,-18.91603 l 0.025,-117.31342 H 86.588647 19.259109 c -11.232695,0 -22.4908,-0.18928 -33.720593,0 l -0.01,187.62828 c -9.01e-4,11.40766 -3.361875,30.40823 10.486589,35.48868 5.194925,1.90548 27.074474,0.99944 33.929878,0.99944 l 114.440907,-0.0227 c 5.11019,-0.004 10.42407,-0.2915 15.51025,0.17035 7.89042,0.71551 11.61495,9.9918 6.28197,16.0944 -3.84338,4.39902 -11.54653,3.05003 -16.75926,3.02606 l -125.297849,0.008 c -9.190159,0.008 -19.140929,0.77986 -28.200835,-0.63348 -29.390722,-4.58966 -29.645526,-31.3598 -29.587302,-53.70065 l 8e-4,-249.84672 c 0.013,-25.09078 4.843277,-48.87197 36.541843,-51.10795 z m -17.338492,93.40554 H 145.75695 392.04219 c 0.76061,-9.28892 0,-19.18608 0,-28.54819 v -18.83399 c -0.011,-28.63576 -6.57049,-27.32843 -34.05633,-27.30205 l -125.70662,0.0165 -207.040285,0.005 c -37.736736,-0.005 -39.722848,-1.07417 -39.715745,34.01398 z"
         id="path1"
         style="fill:#155dfc;fill-opacity:1;stroke-width:1.26372" />
      <path
         fill="#446175"
         d="m 117.2748,489.63221 c 10.11024,-0.65746 18.85372,6.95312 19.56491,17.03199 0.70999,10.07761 -6.87812,18.834 -16.98075,19.59493 -10.17736,0.76598 -19.03599,-6.86857 -19.75228,-17.01938 -0.716293,-10.15079 6.98446,-18.9463 17.16812,-19.60754 z"
         id="path2"
         style="fill:#66d041;fill-opacity:1;stroke-width:1.26372" />
      <path
         fill="#446175"
         d="m 69.566887,489.88781 c 9.98118,-1.61903 19.39543,5.11957 21.05071,15.06846 1.65658,9.94763 -5.06967,19.35643 -15.04075,21.04108 -10.0178,1.69095 -19.50798,-5.05395 -21.17086,-15.04827 -1.66418,-9.99558 5.1317,-19.43593 15.1609,-21.06127 z"
         id="path3"
         style="fill:#de7f02;fill-opacity:1;stroke-width:1.26372" />
      <path
         fill="#446175"
         d="m 24.624003,489.79221 c 10.036804,-1.1067 19.080204,6.09251 20.220474,16.09817 1.13896,10.00443 -6.05298,19.04348 -16.083482,20.20949 -10.07362,1.17231 -19.185347,-6.03825 -20.329315,-16.08556 -1.145369,-10.04733 6.1124,-19.11163 16.192323,-20.2221 z"
         id="path4"
         style="fill:#fc1515;fill-opacity:1;stroke-width:1.26372" />
      <g
         id="g1"
         transform="translate(-63.050781,430.09827)">
        <ellipse
           style="fill:#033099;fill-opacity:1;stroke:none;stroke-width:1.28633;stroke-miterlimit:0;stroke-opacity:1"
           id="path7"
           cx="365.42065"
           cy="366.60895"
           rx="113.3927"
           ry="113.06924" />
        <path
           fill="#4EA4B6"
           d="m 360.17978,278.04069 c 19.70476,-5.1631 16.93643,15.07722 16.91772,27.87557 l -0.031,34.89703 c 9.56841,4.4272 17.30208,12.33207 20.09592,22.67519 l 31.5416,-0.0627 c 7.17754,-0.009 18.38342,-1.71594 24.1888,3.69132 7.27107,6.7722 4.59287,20.37596 -5.45334,22.40728 -5.41421,1.09535 -11.62765,0.52224 -17.15921,0.51547 l -27.78357,-0.0356 h -5.33428 c -11.47629,17.58501 -30.3037,28.00104 -50.90452,17.77662 -28.75286,-14.27014 -25.15809,-57.10086 4.69322,-66.96753 0.21939,-15.80803 -1.51172,-38.20514 0.28561,-53.29084 0.68699,-5.76503 3.28365,-8.17447 8.94266,-9.48177 z"
           id="path6"
           style="fill:#090909;fill-opacity:1;stroke-width:1.69802" />
      </g>
      <rect
         style="fill:none;fill-opacity:1;stroke:#155dfc;stroke-width:9.27959;stroke-dasharray:none;stroke-dashoffset:0;stroke-opacity:1"
         id="rect2"
         width="100.67441"
         height="77.122169"
         x="23.174326"
         y="579.42999"
         ry="6.1732693" />
      <rect
         style="fill:none;fill-opacity:1;stroke:#155dfc;stroke-width:9.76484;stroke-dasharray:none;stroke-dashoffset:0;stroke-opacity:1"
         id="rect2-1"
         width="154.0549"
         height="62.965515"
         x="25.713541"
         y="694.63177"
         ry="5.0400953" />
      <rect
         style="fill:none;fill-opacity:1;stroke:#155dfc;stroke-width:9.27959;stroke-dasharray:none;stroke-dashoffset:0;stroke-opacity:1"
         id="rect2-9"
         width="100.67441"
         height="77.122169"
         x="145.15054"
         y="579.42999"
         ry="6.1732693" />
      <rect
         style="fill:none;fill-opacity:1;stroke:#155dfc;stroke-width:9.27959;stroke-dasharray:none;stroke-dashoffset:0;stroke-opacity:1"
         id="rect2-9-8"
         width="100.67441"
         height="77.122169"
         x="267.12659"
         y="579.42999"
         ry="6.1732693"
         inkscape:transform-center-x="28.752359"
         inkscape:transform-center-y="4.0457246" />
    </g>
  </g>
</svg>
