<?xml version="1.0" encoding="UTF-8" standalone="no"?>
<svg
   xml:space="preserve"
   id="Layer_1"
   x="0"
   y="0"
   version="1.1"
   viewBox="0 0 512 512"
   sodipodi:docname="duplicati_logo.svg"
   inkscape:version="1.4.2 (f4327f4, 2025-05-13)"
   xmlns:inkscape="http://www.inkscape.org/namespaces/inkscape"
   xmlns:sodipodi="http://sodipodi.sourceforge.net/DTD/sodipodi-0.dtd"
   xmlns="http://www.w3.org/2000/svg"
   xmlns:svg="http://www.w3.org/2000/svg"><defs
     id="defs6" /><sodipodi:namedview
     id="namedview6"
     pagecolor="#ffffff"
     bordercolor="#000000"
     borderopacity="0.25"
     inkscape:showpageshadow="2"
     inkscape:pageopacity="0.0"
     inkscape:pagecheckerboard="0"
     inkscape:deskcolor="#d1d1d1"
     inkscape:zoom="1.5761719"
     inkscape:cx="256.63444"
     inkscape:cy="256"
     inkscape:window-width="1920"
     inkscape:window-height="1009"
     inkscape:window-x="1912"
     inkscape:window-y="-8"
     inkscape:window-maximized="1"
     inkscape:current-layer="Layer_1" /><style
     id="style1">.st1{fill:#fff}</style><path
     d="m 240,440 c -27.2,0 -48,-20.8 -48,-48 v -80 c 0,-27.2 20.8,-48 48,-48 h 128 c 27.2,0 48,20.8 48,48 v 80 c 0,27.2 -20.8,48 -48,48 z"
     style="display:inline;fill:#9f9f9f;fill-opacity:1"
     id="path1" /><path
     d="M368 280c17.6 0 32 14.4 32 32v80c0 17.6-14.4 32-32 32H240c-17.6 0-32-14.4-32-32v-80c0-17.6 14.4-32 32-32zm0-32H240c-35.2 0-64 28.8-64 64v80c0 35.2 28.8 64 64 64h128c35.2 0 64-28.8 64-64v-80c0-35.2-28.8-64-64-64"
     class="st1"
     id="path2" /><path
     d="M64 472c-27.2 0-48-20.8-48-48V312c0-27.2 20.8-48 48-48h160c27.2 0 48 20.8 48 48v112c0 27.2-20.8 48-48 48z"
     style="fill:#5b5b5b;fill-opacity:1"
     id="path3" /><path
     d="m 224,280 c 17.6,0 32,14.4 32,32 v 112 c 0,17.6 -14.4,32 -32,32 H 64 C 46.4,456 32,441.6 32,424 V 312 c 0,-17.6 14.4,-32 32,-32 z m 0,-32 H 64 C 28.8,248 0,276.8 0,312 v 112 c 0,35.2 28.8,64 64,64 h 160 c 35.2,0 64,-28.8 64,-64 V 312 c 0,-35.2 -28.8,-64 -64,-64"
     class="st1"
     id="path4"
     style="display:inline" /><path
     d="m 192,328 c -27.2,0 -48,-20.8 -48,-48 V 88 c 0,-27.2 20.8,-48 48,-48 h 256 c 27.2,0 48,20.8 48,48 v 192 c 0,27.2 -20.8,48 -48,48 z"
     style="display:inline;fill:#3e3e3e;fill-opacity:1"
     id="path5" /><path
     d="m 448,56 c 17.6,0 32,14.4 32,32 v 192 c 0,17.6 -14.4,32 -32,32 H 192 c -17.6,0 -32,-14.4 -32,-32 V 88 c 0,-17.6 14.4,-32 32,-32 z m 0,-32 H 192 c -35.2,0 -64,28.8 -64,64 v 192 c 0,35.2 28.8,64 64,64 h 256 c 35.2,0 64,-28.8 64,-64 V 88 C 512,52.8 483.2,24 448,24"
     class="st1"
     id="path6"
     style="display:inline;fill:#ffffff;fill-opacity:1" /></svg>
