<?xml version="1.0" encoding="UTF-8" standalone="no"?>
<svg
   width="2048"
   height="512"
   version="1.1"
   id="svg13"
   sodipodi:docname="duplidash_splash.svg"
   inkscape:export-filename="a-dashboard-icon-for-a-backup-tool-.png"
   inkscape:export-xdpi="96"
   inkscape:export-ydpi="96"
   inkscape:version="1.4 (86a8ad7, 2024-10-11)"
   xmlns:inkscape="http://www.inkscape.org/namespaces/inkscape"
   xmlns:sodipodi="http://sodipodi.sourceforge.net/DTD/sodipodi-0.dtd"
   xmlns="http://www.w3.org/2000/svg"
   xmlns:svg="http://www.w3.org/2000/svg"
   xmlns:rdf="http://www.w3.org/1999/02/22-rdf-syntax-ns#"
   xmlns:cc="http://creativecommons.org/ns#"
   xmlns:dc="http://purl.org/dc/elements/1.1/">
  <title
     id="title13">Duplidash Logo</title>
  <defs
     id="defs13">
    <rect
       x="585.00424"
       y="78.957627"
       width="1378.1695"
       height="351.72034"
       id="rect7" />
  </defs>
  <sodipodi:namedview
     id="namedview13"
     pagecolor="#ffffff"
     bordercolor="#000000"
     borderopacity="0.25"
     inkscape:showpageshadow="2"
     inkscape:pageopacity="0.0"
     inkscape:pagecheckerboard="0"
     inkscape:deskcolor="#d1d1d1"
     inkscape:zoom="0.39404298"
     inkscape:cx="1350.1065"
     inkscape:cy="281.69516"
     inkscape:window-width="1591"
     inkscape:window-height="1000"
     inkscape:window-x="2037"
     inkscape:window-y="36"
     inkscape:window-maximized="0"
     inkscape:current-layer="svg13"
     showgrid="false">
    <inkscape:grid
       id="grid7"
       units="px"
       originx="0"
       originy="0"
       spacingx="1"
       spacingy="1"
       empcolor="#0099e5"
       empopacity="0.30196078"
       color="#0099e5"
       opacity="0.14901961"
       empspacing="5"
       enabled="true"
       visible="false" />
  </sodipodi:namedview>
  <rect
     style="fill:#000000;stroke-width:0.3;stroke-miterlimit:0"
     id="rect1"
     width="323.00851"
     height="184.04756"
     x="93.874336"
     y="160.94345" />
  <path
     fill="#4EA4B6"
     d="M 109.227,78.0748 C 116,77.829 122.865,78.0726 129.649,78.073 l 261.776,-0.0115 c 5.021,2e-4 10.18,-0.1765 15.178,0.3361 21.482,2.2036 25.241,20.6422 25.246,37.9624 l -0.004,142.202 c 10e-4,4.519 1.127,12.208 -2.159,15.856 -2.734,3.033 -7.907,3.228 -10.787,0.284 -3.517,-3.595 -2.192,-10.448 -2.182,-14.99 l 0.02,-92.965 H 175.375 122.172 c -8.876,0 -17.772,-0.15 -26.6457,0 l -0.0067,148.686 c -7e-4,9.04 -2.6565,24.097 8.2864,28.123 4.105,1.51 21.394,0.792 26.811,0.792 l 90.43,-0.018 c 4.038,-0.003 8.237,-0.231 12.256,0.135 6.235,0.567 9.178,7.918 4.964,12.754 -3.037,3.486 -9.124,2.417 -13.243,2.398 l -99.009,0.006 c -7.262,0.006 -15.125,0.618 -22.284,-0.502 C 80.5067,355.484 80.3054,334.27 80.3514,316.566 l 6e-4,-197.991 C 80.3626,98.6921 84.1791,79.8467 109.227,78.0748 Z M 95.5263,152.094 H 222.125 416.737 c 0.601,-7.361 0.002,-15.204 0.003,-22.623 l 0.002,-14.925 C 416.733,91.8536 411.55,92.8896 389.831,92.9105 l -99.332,0.0131 -163.601,0.004 C 97.0788,92.9241 95.5094,92.0764 95.515,119.882 Z"
     id="path1"
     style="fill:#4cc8fd;fill-opacity:1" />
  <path
     fill="#446175"
     d="m 216.334,107.624 c 7.989,-0.521 14.898,5.51 15.46,13.497 0.561,7.986 -5.435,14.925 -13.418,15.528 -8.042,0.607 -15.042,-5.443 -15.608,-13.487 -0.566,-8.044 5.519,-15.014 13.566,-15.538 z"
     id="path2"
     style="fill:#4cc8fd;fill-opacity:1" />
  <path
     fill="#446175"
     d="m 173.619,107.957 c 7.887,-1.283 15.326,4.057 16.634,11.941 1.309,7.883 -4.006,15.339 -11.885,16.674 -7.916,1.34 -15.415,-4.005 -16.729,-11.925 -1.315,-7.921 4.055,-15.402 11.98,-16.69 z"
     id="path3"
     style="fill:#4cc8fd;fill-opacity:1" />
  <path
     fill="#446175"
     d="m 133.34,107.819 c 7.931,-0.877 15.077,4.828 15.978,12.757 0.9,7.928 -4.783,15.091 -12.709,16.015 -7.96,0.929 -15.16,-4.785 -16.064,-12.747 -0.905,-7.962 4.83,-15.145 12.795,-16.025 z"
     id="path4"
     style="fill:#4cc8fd;fill-opacity:1" />
  <circle
     style="fill:#4cc8fd;fill-opacity:1;stroke:none;stroke-width:1.0179;stroke-miterlimit:0;stroke-opacity:1"
     id="path7"
     cx="342.87085"
     cy="342.87076"
     r="89.6017" />
  <path
     fill="#4EA4B6"
     d="m 338.7296,272.68488 c 15.57049,-4.09149 13.38299,11.94795 13.36821,22.09 l -0.0242,27.65415 c 7.56086,3.50833 13.67189,9.77254 15.87954,17.96895 l 24.92381,-0.0497 c 5.67164,-0.007 14.52645,-1.3598 19.11376,2.92518 5.74555,5.36663 3.62926,16.14693 -4.30917,17.75665 -4.27825,0.86801 -9.18804,0.41385 -13.55901,0.40848 l -21.95428,-0.0282 h -4.21511 c -9.06845,13.93524 -23.94561,22.18943 -40.22422,14.08708 -22.72018,-11.30836 -19.87965,-45.24956 3.70854,-53.0684 0.17334,-12.52707 -1.19452,-30.27566 0.22574,-42.23032 0.54284,-4.5685 2.59463,-6.47786 7.06638,-7.51383 z"
     id="path6"
     style="fill:#000000;fill-opacity:1;stroke-width:1.34367" />
  <path
     fill="#446175"
     d="m 173.038,222.003 c 6.745,-0.34 38.135,-1.285 41.653,2.073 3.945,3.764 2.043,10.469 -2.991,12.174 -2.647,0.897 -5.946,0.515 -8.727,0.505 l -17.08,-0.051 c -27.177,-0.066 -26.733,6.864 -26.639,29.357 l -0.043,16.276 c -0.121,24.398 15.774,21.82 34.472,21.822 l 31.971,-0.008 c 4.832,-0.121 12.738,-1.239 14.341,5.016 2.603,10.157 -7.149,9.422 -13.129,9.353 l -37.696,-0.018 c -19.973,0.021 -38.987,-1.7 -44.005,-26.358 -1.291,-6.346 -0.609,-17.474 -0.611,-24.341 -0.006,-23.383 1.08,-40.419 28.484,-45.8 z"
     id="path8"
     style="fill:#4cc8fd;fill-opacity:1" />
  <path
     fill="#446175"
     d="m 238.77,191.439 c 2.808,-0.186 5.724,-0.019 8.541,-0.013 l 30.809,0.005 c 17.389,-0.013 32.733,4.063 39.345,22.849 2.573,7.31 5.26,21.49 -4.5,24.597 -11.562,-0.205 -7.169,-12.257 -9.506,-19.603 -4.881,-15.341 -20.712,-12.92 -32.973,-12.906 l -22.914,-0.001 c -4.967,0.03 -13.162,1.188 -14.922,-5.191 -1.355,-4.912 1.301,-8.467 6.12,-9.737 z"
     id="path9"
     style="fill:#4cc8fd;fill-opacity:1" />
  <path
     fill="#4EA4B6"
     d="m 240.584,224.233 h 15.05 l -0.003,38.6 c 0.007,6.22 1.767,17.901 -1.796,23.008 -3.133,3.011 -9.17,1.843 -13.251,1.815 -0.003,-21.123 0.364,-42.308 0,-63.423 z"
     id="path10"
     style="fill:#4cc8fd;fill-opacity:1" />
  <path
     fill="#4EA4B6"
     d="m 208.643,251.5 h 15.104 v 36.156 c -4.964,0.27 -10.123,0.009 -15.104,0 z"
     id="path11"
     style="fill:#4cc8fd;fill-opacity:1" />
  <path
     fill="#4EA4B6"
     d="m 272.251,224.233 h 15.001 v 32.507 h -15.001 z"
     id="path12"
     style="fill:#4cc8fd;fill-opacity:1" />
  <path
     fill="#4EA4B6"
     d="m 183.704,256.74 h 7.806 v 30.916 h -6.326 -8.628 V 256.74 c 2.621,-0.495 4.531,-0.474 7.148,0 z"
     id="path13"
     style="fill:#4cc8fd;fill-opacity:1" />
  <metadata
     id="metadata13">
    <rdf:RDF>
      <cc:Work
         rdf:about="">
        <dc:title>Duplidash Logo</dc:title>
      </cc:Work>
    </rdf:RDF>
  </metadata>
  <text
     xml:space="preserve"
     id="text7"
     style="text-align:start;writing-mode:lr-tb;direction:ltr;white-space:pre;shape-inside:url(#rect7);fill:#4cc8fd;fill-opacity:1;stroke:none;stroke-width:0.3;stroke-miterlimit:0;stroke-opacity:1;-inkscape-font-specification:Ubuntu;font-family:Ubuntu;font-weight:normal;font-style:normal;font-stretch:normal;font-variant:normal;font-size:266.66666667px"><tspan
       x="585.00391"
       y="327.62192"
       id="tspan1">Duplidash </tspan></text>
</svg>
