<?xml version="1.0" encoding="UTF-8" standalone="no"?>
<!-- Created with Inkscape (http://www.inkscape.org/) -->

<svg
   width="1400mm"
   height="600mm"
   viewBox="0 0 1400 599.99999"
   version="1.1"
   id="svg1"
   xml:space="preserve"
   inkscape:version="1.4.2 (f4327f4, 2025-05-13)"
   sodipodi:docname="ds_new_logo_study.svg"
   xmlns:inkscape="http://www.inkscape.org/namespaces/inkscape"
   xmlns:sodipodi="http://sodipodi.sourceforge.net/DTD/sodipodi-0.dtd"
   xmlns:xlink="http://www.w3.org/1999/xlink"
   xmlns="http://www.w3.org/2000/svg"
   xmlns:svg="http://www.w3.org/2000/svg"><sodipodi:namedview
     id="namedview1"
     pagecolor="#000000"
     bordercolor="#000000"
     borderopacity="0.25"
     inkscape:showpageshadow="2"
     inkscape:pageopacity="0.0"
     inkscape:pagecheckerboard="0"
     inkscape:deskcolor="#d1d1d1"
     inkscape:document-units="mm"
     inkscape:zoom="0.24371216"
     inkscape:cx="3093.8136"
     inkscape:cy="1216.5991"
     inkscape:window-width="1920"
     inkscape:window-height="1009"
     inkscape:window-x="1912"
     inkscape:window-y="-8"
     inkscape:window-maximized="1"
     inkscape:current-layer="g59" /><defs
     id="defs1"><rect
       x="2071.6005"
       y="367.02726"
       width="565.77325"
       height="368.47797"
       id="rect58" /><linearGradient
       inkscape:collect="always"
       xlink:href="#linearGradient10"
       id="linearGradient11"
       x1="12.037618"
       y1="245.96864"
       x2="500.76489"
       y2="245.96864"
       gradientUnits="userSpaceOnUse"
       gradientTransform="matrix(0.3195618,0,0,0.42014377,43.516248,14.280547)" /><linearGradient
       id="linearGradient10"
       inkscape:collect="always"><stop
         style="stop-color:#0f9b34;stop-opacity:1;"
         offset="0"
         id="stop10" /><stop
         style="stop-color:#1a1fbe;stop-opacity:1;"
         offset="1"
         id="stop11" /></linearGradient><linearGradient
       inkscape:collect="always"
       xlink:href="#linearGradient10"
       id="linearGradient4"
       gradientUnits="userSpaceOnUse"
       gradientTransform="matrix(0.3195618,0,0,0.42014377,43.516248,14.280547)"
       x1="12.037618"
       y1="245.96864"
       x2="500.76489"
       y2="245.96864" /><linearGradient
       inkscape:collect="always"
       xlink:href="#linearGradient10"
       id="linearGradient6"
       gradientUnits="userSpaceOnUse"
       gradientTransform="matrix(0.3195618,0,0,0.42014377,210.0675,17.403383)"
       x1="12.037618"
       y1="245.96864"
       x2="500.76489"
       y2="245.96864" /><linearGradient
       inkscape:collect="always"
       xlink:href="#linearGradient10"
       id="linearGradient7"
       gradientUnits="userSpaceOnUse"
       gradientTransform="matrix(0.3195618,0,0,0.42014377,49.761919,175.62707)"
       x1="12.037618"
       y1="245.96864"
       x2="500.76489"
       y2="245.96864" /><linearGradient
       inkscape:collect="always"
       xlink:href="#linearGradient10"
       id="linearGradient8"
       gradientUnits="userSpaceOnUse"
       gradientTransform="matrix(0.3195618,0,0,0.42014377,49.761919,175.62707)"
       x1="12.037618"
       y1="245.96864"
       x2="500.76489"
       y2="245.96864" /><linearGradient
       inkscape:collect="always"
       xlink:href="#linearGradient10"
       id="linearGradient9"
       gradientUnits="userSpaceOnUse"
       gradientTransform="matrix(0.3195618,0,0,0.42014377,469.5779,147.36074)"
       x1="12.037618"
       y1="245.96864"
       x2="500.76489"
       y2="245.96864" /><linearGradient
       inkscape:collect="always"
       xlink:href="#linearGradient10"
       id="linearGradient20"
       gradientUnits="userSpaceOnUse"
       gradientTransform="matrix(0.3195618,0,0,0.42014377,451.24526,189.49441)"
       x1="12.037618"
       y1="245.96864"
       x2="500.76489"
       y2="245.96864" /><clipPath
       clipPathUnits="userSpaceOnUse"
       id="clipPath21"><circle
         style="font-variation-settings:normal;display:inline;opacity:1;vector-effect:none;fill:url(#linearGradient22);fill-opacity:1;stroke:none;stroke-width:0.703527;stroke-linecap:butt;stroke-linejoin:miter;stroke-miterlimit:4;stroke-dasharray:0.703527, 0.703527;stroke-dashoffset:0;stroke-opacity:0.843137;-inkscape-stroke:none;stop-color:#000000;stop-opacity:1"
         id="circle21"
         cx="505.21249"
         cy="433.51041"
         r="75" /></clipPath><linearGradient
       inkscape:collect="always"
       xlink:href="#linearGradient10"
       id="linearGradient22"
       gradientUnits="userSpaceOnUse"
       gradientTransform="matrix(0.31956179,0,0,0.42014378,408.56649,152.02038)"
       x1="12.037618"
       y1="245.96864"
       x2="500.76489"
       y2="245.96864" /><rect
       x="2071.6006"
       y="367.02725"
       width="565.77325"
       height="368.47797"
       id="rect58-6" /><clipPath
       clipPathUnits="userSpaceOnUse"
       id="clipPath58"><rect
         style="display:inline;fill:url(#linearGradient59);stroke:none;stroke-width:0.706345;stroke-dasharray:0.706345, 0.706345;stroke-opacity:0.843137"
         id="rect59"
         width="156.80406"
         height="151.31799"
         x="430.96237"
         y="137.0408"
         ry="17.924406"
         inkscape:label="retangulo" /></clipPath><linearGradient
       inkscape:collect="always"
       xlink:href="#linearGradient10"
       id="linearGradient59"
       gradientUnits="userSpaceOnUse"
       gradientTransform="matrix(0.32084163,0,0,0.42182645,427.1002,108.94367)"
       x1="12.037618"
       y1="245.96864"
       x2="500.76489"
       y2="245.96864" /></defs><g
     inkscape:groupmode="layer"
     id="layer5"
     inkscape:label="quadro branco"
     sodipodi:insensitive="true"
     style="display:inline"><rect
       style="font-variation-settings:normal;vector-effect:none;fill:#ffffff;fill-opacity:1;stroke:none;stroke-width:0.703527;stroke-linecap:butt;stroke-linejoin:miter;stroke-miterlimit:4;stroke-dasharray:0.703527, 0.703527;stroke-dashoffset:0;stroke-opacity:0.843137;-inkscape-stroke:none"
       id="rect43"
       width="695.35144"
       height="599.58447"
       x="701.48383"
       y="0.9930529"
       ry="1.9785312" /></g><g
     inkscape:label="logo 2"
     inkscape:groupmode="layer"
     id="layer1"
     transform="translate(115.22593,-66.566315)"
     style="display:inline"
     sodipodi:insensitive="true"><circle
       style="fill:#000000;fill-opacity:1;stroke-width:2.23864"
       id="path2"
       cx="181.82489"
       cy="184.04034"
       r="80"
       inkscape:label="circulo" /><path
       style="fill:#ffffff;fill-opacity:1;stroke:none;stroke-width:1.96492"
       d="m 116.62855,163.49561 4.55363,-1.06838 c -4.55128,5.50461 -10.23723,11.74171 -12.64898,18.69665 l 3.54172,-1.06839 c -3.58945,9.10262 -13.640315,22.12391 -10.80824,32.58559 2.20755,8.15459 9.84449,16.60138 15.36187,22.43596 15.91473,16.82973 37.57415,29.90524 60.71508,29.91464 6.14801,0.002 12.13853,-0.0873 18.21453,-1.20194 1.92451,-0.35304 5.21179,-0.50835 6.70784,-1.96982 1.99057,-1.94459 1.39895,-7.58394 1.3871,-10.18299 -0.0474,-10.38436 -2.92747,-24.69028 -10.3335,-31.34738 -2.56105,-2.30206 -6.44938,-0.0332 -9.3985,0.27328 -4.36986,0.45387 -9.14421,-1.10646 -13.15494,-2.82182 -20.44638,-8.7448 -21.35681,-36.07569 -3.03575,-48.36931 v -0.5342 l -1.51789,-1.06836 6.07151,-2.13678 -7.08341,-3.20513 4.55362,-2.13677 -10.62513,-2.13674 c 10.9173,-15.08649 29.14167,-22.23861 46.54822,-22.43394 7.30249,-0.082 17.27991,0.89558 19.73239,9.61338 5.79571,-4.29287 9.13914,-6.48182 15.68472,-1.88779 1.15858,0.81312 2.89315,2.14712 3.74239,0.19584 2.37104,-5.44813 -3.49943,-11.26289 -7.2841,-13.69028 -10.76542,-6.90476 -23.16003,-9.11357 -35.41712,-10.64049 -28.2433,-3.51841 -53.00052,9.8728 -72.35214,30.29629 -4.1597,4.39014 -10.25507,8.45284 -13.15492,13.88895 m 72.37242,-18.7725 c -7.1304,3.20857 -2.32315,15.86029 5.03736,12.81684 7.85852,-3.24937 2.76384,-16.32725 -5.03736,-12.81684 m 44.03797,2.70227 c -2.99569,1.13826 -4.3733,8.922 -0.0398,7.60274 3.49916,-1.06529 4.03574,-9.12106 0.0398,-7.60274 m -17.74839,38.50619 c 5.68186,4.31318 8.5357,10.86556 13.68275,15.32952 4.1381,3.58892 9.13496,2.71469 9.93804,9.7774 0.80302,7.06249 -3.44811,13.09494 -4.39436,19.76502 5.62203,-0.6119 10.51038,-6.81128 13.82993,-11.21799 10.47171,-13.90114 13.45093,-31.63748 8.63998,-48.61125 -1.50278,-5.30199 -4.9912,-16.37541 -10.33429,-18.62371 -3.71295,-1.56236 -10.66295,7.96526 -14.15945,9.61667 -5.45265,2.57528 -10.22417,5.75704 -13.6078,11.14379 -1.31387,2.09167 -1.71189,6.65616 -3.39219,8.13405 -1.92949,1.69706 -5.81109,0.4974 -8.27803,2.43724 -7.33356,5.76663 -15.69678,21.98453 -11.91895,31.62969 4.71362,12.03439 24.51699,5.29363 32.13738,0.52634 2.23075,-1.39552 7.61696,-4.49178 8.00636,-7.50338 0.36261,-2.80473 -8.25042,-3.60188 -10.0298,-4.77225 -4.52555,-2.97663 -7.98417,-12.56514 -10.11957,-17.63114 z"
       id="path1"
       inkscape:label="arara" /></g><g
     inkscape:groupmode="layer"
     id="layer2"
     inkscape:label="logo 1-white"
     transform="translate(6.7241847)"
     style="display:inline"
     sodipodi:insensitive="true"><rect
       style="display:inline;fill:url(#linearGradient11);stroke:none;stroke-width:0.703526;stroke-dasharray:0.703526, 0.703526;stroke-opacity:0.843137"
       id="rect9"
       width="156.17856"
       height="150.71439"
       x="47.363014"
       y="42.265545"
       ry="17.852905"
       inkscape:label="retangulo" /><path
       style="fill:#ffffff;fill-opacity:1;stroke:none;stroke-width:1.96492"
       d="m 52.853845,92.765516 4.553629,-1.06838 c -4.551278,5.50461 -10.23723,11.741714 -12.648986,18.696654 l 3.541726,-1.06839 c -3.589456,9.10262 -13.640316,22.12391 -10.80824,32.58558 2.207544,8.15459 9.844485,16.60138 15.361871,22.43596 15.91473,16.82973 37.574145,29.90524 60.715075,29.91464 6.14801,0.002 12.13853,-0.0873 18.21453,-1.20194 1.92451,-0.35304 5.21179,-0.50835 6.70784,-1.96982 1.99057,-1.94459 1.39895,-7.58394 1.3871,-10.18299 -0.0474,-10.38436 -2.92747,-24.69028 -10.3335,-31.34738 -2.56105,-2.30206 -6.44938,-0.0332 -9.3985,0.27328 -4.36986,0.45387 -9.14421,-1.10646 -13.15494,-2.82182 -20.44638,-8.7448 -21.35681,-36.07568 -3.03575,-48.369304 v -0.5342 l -1.51789,-1.06836 6.07151,-2.13678 -7.08341,-3.20513 4.55362,-2.13677 -10.62513,-2.13674 c 10.9173,-15.08649 29.14167,-22.238614 46.54822,-22.433937 7.30249,-0.08204 17.27991,0.895581 19.73239,9.613377 5.79571,-4.29287 9.13914,-6.48182 15.68472,-1.88779 1.15858,0.81312 2.89315,2.14712 3.74239,0.19584 2.37104,-5.44813 -3.49943,-11.262886 -7.2841,-13.690277 C 163.0126,52.316074 150.61799,50.107263 138.3609,48.580345 110.1176,45.06194 85.36038,58.453141 66.008766,78.876636 c -4.159703,4.39014 -10.255074,8.45284 -13.154921,13.88895 m 72.372415,-18.7725 c -7.1304,3.20857 -2.32315,15.86029 5.03736,12.81684 7.85852,-3.24937 2.76384,-16.32725 -5.03736,-12.81684 m 44.03797,2.70227 c -2.99569,1.13826 -4.3733,8.922 -0.0398,7.60274 3.49916,-1.06529 4.03574,-9.12106 0.0398,-7.60274 m -17.74839,38.506194 c 5.68186,4.31318 8.5357,10.86556 13.68275,15.32952 4.1381,3.58892 9.13496,2.71469 9.93804,9.77739 0.80302,7.06249 -3.44811,13.09494 -4.39436,19.76502 5.62203,-0.6119 10.51038,-6.81128 13.82993,-11.21799 10.47171,-13.90113 13.45093,-31.63747 8.63998,-48.61124 -1.50278,-5.301994 -4.9912,-16.375414 -10.33429,-18.623714 -3.71295,-1.56236 -10.66295,7.96526 -14.15945,9.61667 -5.45265,2.57528 -10.22417,5.75704 -13.6078,11.143794 -1.31387,2.09167 -1.71189,6.65616 -3.39219,8.13405 -1.92949,1.69706 -5.81109,0.4974 -8.27803,2.43724 -7.33356,5.76663 -15.69678,21.98453 -11.91895,31.62968 4.71362,12.03439 24.51699,5.29363 32.13738,0.52634 2.23075,-1.39552 7.61696,-4.49178 8.00636,-7.50338 0.36261,-2.80472 -8.25042,-3.60187 -10.0298,-4.77224 -4.52555,-2.97663 -7.98417,-12.56514 -10.11957,-17.63114 z"
       id="path3"
       inkscape:label="arara" /></g><g
     inkscape:groupmode="layer"
     id="g4"
     inkscape:label="logo 1-black"
     transform="translate(5.6832394,170.19456)"
     style="display:inline"
     sodipodi:insensitive="true"><rect
       style="display:inline;fill:url(#linearGradient4);stroke:none;stroke-width:0.703526;stroke-dasharray:0.703526, 0.703526;stroke-opacity:0.843137"
       id="rect3"
       width="156.17856"
       height="150.71439"
       x="47.363014"
       y="42.265545"
       ry="17.852905"
       inkscape:label="retangulo" /><path
       style="fill:#000000;fill-opacity:1;stroke:none;stroke-width:1.96492"
       d="m 52.853845,92.765516 4.553629,-1.06838 c -4.551278,5.50461 -10.23723,11.741714 -12.648986,18.696654 l 3.541726,-1.06839 c -3.589456,9.10262 -13.640316,22.12391 -10.80824,32.58558 2.207544,8.15459 9.844485,16.60138 15.361871,22.43596 15.91473,16.82973 37.574145,29.90524 60.715075,29.91464 6.14801,0.002 12.13853,-0.0873 18.21453,-1.20194 1.92451,-0.35304 5.21179,-0.50835 6.70784,-1.96982 1.99057,-1.94459 1.39895,-7.58394 1.3871,-10.18299 -0.0474,-10.38436 -2.92747,-24.69028 -10.3335,-31.34738 -2.56105,-2.30206 -6.44938,-0.0332 -9.3985,0.27328 -4.36986,0.45387 -9.14421,-1.10646 -13.15494,-2.82182 -20.44638,-8.7448 -21.35681,-36.07568 -3.03575,-48.369304 v -0.5342 l -1.51789,-1.06836 6.07151,-2.13678 -7.08341,-3.20513 4.55362,-2.13677 -10.62513,-2.13674 c 10.9173,-15.08649 29.14167,-22.238614 46.54822,-22.433937 7.30249,-0.08204 17.27991,0.895581 19.73239,9.613377 5.79571,-4.29287 9.13914,-6.48182 15.68472,-1.88779 1.15858,0.81312 2.89315,2.14712 3.74239,0.19584 2.37104,-5.44813 -3.49943,-11.262886 -7.2841,-13.690277 C 163.0126,52.316074 150.61799,50.107263 138.3609,48.580345 110.1176,45.06194 85.36038,58.453141 66.008766,78.876636 c -4.159703,4.39014 -10.255074,8.45284 -13.154921,13.88895 m 72.372415,-18.7725 c -7.1304,3.20857 -2.32315,15.86029 5.03736,12.81684 7.85852,-3.24937 2.76384,-16.32725 -5.03736,-12.81684 m 44.03797,2.70227 c -2.99569,1.13826 -4.3733,8.922 -0.0398,7.60274 3.49916,-1.06529 4.03574,-9.12106 0.0398,-7.60274 m -17.74839,38.506194 c 5.68186,4.31318 8.5357,10.86556 13.68275,15.32952 4.1381,3.58892 9.13496,2.71469 9.93804,9.77739 0.80302,7.06249 -3.44811,13.09494 -4.39436,19.76502 5.62203,-0.6119 10.51038,-6.81128 13.82993,-11.21799 10.47171,-13.90113 13.45093,-31.63747 8.63998,-48.61124 -1.50278,-5.301994 -4.9912,-16.375414 -10.33429,-18.623714 -3.71295,-1.56236 -10.66295,7.96526 -14.15945,9.61667 -5.45265,2.57528 -10.22417,5.75704 -13.6078,11.143794 -1.31387,2.09167 -1.71189,6.65616 -3.39219,8.13405 -1.92949,1.69706 -5.81109,0.4974 -8.27803,2.43724 -7.33356,5.76663 -15.69678,21.98453 -11.91895,31.62968 4.71362,12.03439 24.51699,5.29363 32.13738,0.52634 2.23075,-1.39552 7.61696,-4.49178 8.00636,-7.50338 0.36261,-2.80472 -8.25042,-3.60187 -10.0298,-4.77224 -4.52555,-2.97663 -7.98417,-12.56514 -10.11957,-17.63114 z"
       id="path4"
       inkscape:label="arara" /></g><g
     inkscape:groupmode="layer"
     id="layer4"
     inkscape:label="logo 1-black 2"
     style="display:inline"><g
       id="g59"><rect
         style="display:inline;fill:url(#linearGradient9);stroke:none;stroke-width:0.703526;stroke-dasharray:0.703526, 0.703526;stroke-opacity:0.843137"
         id="rect3-7"
         width="156.17856"
         height="150.71439"
         x="473.42471"
         y="175.34576"
         ry="17.852905"
         inkscape:label="retangulo" /><path
         style="display:inline;fill:#000000;fill-opacity:1;stroke:none;stroke-width:1.69535"
         d="m 443.00829,198.60789 3.92892,-0.92181 c -3.92689,4.74942 -8.83276,10.13085 -10.91364,16.13162 l 3.05582,-0.92181 c -3.09701,7.85381 -11.76898,19.0887 -9.32544,28.11511 1.9047,7.03585 -2.28372,33.40922 2.47673,38.44334 13.73135,14.52082 33.09288,12.77951 53.05907,12.78762 5.30456,0.002 1.23,0.0501 18.6346,-0.8125 3.99848,-0.19818 13.02906,-0.21408 14.31987,-1.47505 1.71748,-1.67782 -0.14017,-13.05497 -0.1504,-15.29746 -0.0409,-8.9597 -2.52585,-21.30298 -8.91584,-27.04678 -2.2097,-1.98625 -5.56457,-0.0287 -8.10911,0.23578 -3.77034,0.39162 -7.8897,-0.95467 -11.35018,-2.43468 -17.6413,-7.5451 -18.42684,-31.12641 -2.61927,-41.73345 v -0.46091 l -1.30965,-0.92178 5.23854,-1.84365 -6.11162,-2.7654 3.92891,-1.84363 -9.16746,-1.8436 c 9.41953,-13.01676 25.14368,-19.18767 40.1622,-19.35619 6.30066,-0.0708 14.90925,0.77271 17.02527,8.2945 5.00059,-3.70392 7.88533,-5.59257 13.5329,-1.6288 0.99964,0.70157 2.49624,1.85255 3.22896,0.16897 2.04577,-4.70069 -3.01933,-9.71771 -6.28475,-11.81208 -9.28851,-5.95748 -19.98269,-7.86328 -30.5582,-9.18071 -24.36857,-3.03571 -45.72929,8.51834 -62.42604,26.13988 -3.58903,3.78788 -8.84817,7.29321 -11.35019,11.98353 m 62.44354,-16.19708 c -6.15217,2.76838 -2.00442,13.68439 4.34628,11.05847 6.7804,-2.80358 2.38466,-14.08728 -4.34628,-11.05847 m 37.99635,2.33154 c -2.58473,0.98209 -3.77333,7.69799 -0.0343,6.5597 3.0191,-0.91912 3.48207,-7.86973 0.0343,-6.5597 m -15.31348,33.22347 c 4.90237,3.72145 7.36469,9.37489 11.8056,13.22644 3.57038,3.09654 7.88173,2.34225 8.57462,8.43601 0.69286,6.09357 -2.97505,11.29843 -3.79148,17.05343 4.85072,-0.52796 9.06843,-5.87683 11.93257,-9.67897 9.03508,-11.99401 11.60557,-27.29709 7.45466,-41.9422 -1.29661,-4.57459 -4.30645,-14.12883 -8.91652,-16.06869 -3.20356,-1.34804 -9.20008,6.8725 -12.21689,8.29735 -4.70459,2.22196 -8.82151,4.96722 -11.74092,9.61495 -1.13363,1.80471 -1.47705,5.74299 -2.92683,7.01813 -1.66476,1.46424 -5.01384,0.42916 -7.14235,2.10287 -6.32746,4.9755 -13.54331,18.96843 -10.28376,27.29035 4.06695,10.38338 21.15347,4.56738 27.72839,0.45413 1.92472,-1.20407 6.57198,-3.87554 6.90796,-6.47398 0.31286,-2.41993 -7.11852,-3.10772 -8.6538,-4.11752 -3.90468,-2.56827 -6.8888,-10.84131 -8.73125,-15.2123 z"
         id="path4-3"
         inkscape:label="arara"
         sodipodi:nodetypes="ccccsscsssscscccccccccsccssccsccsccsscsssssssssssc"
         clip-path="url(#clipPath58)"
         transform="translate(42.14959,38.003197)" /><text
         xml:space="preserve"
         style="font-size:70.5556px;font-family:'Passero One';-inkscape-font-specification:'Passero One';font-variation-settings:normal;text-align:center;writing-mode:lr-tb;direction:ltr;text-anchor:middle;opacity:1;fill:#d1d1d1;fill-opacity:1;stroke:none;stroke-width:2.604;stroke-linecap:butt;stroke-linejoin:miter;stroke-miterlimit:4;stroke-dasharray:none;stroke-dashoffset:0;stroke-opacity:1"
         x="505.37839"
         y="320.31799"
         id="text59"><tspan
           sodipodi:role="line"
           id="tspan59"
           style="fill:#d1d1d1;fill-opacity:1;stroke:none;stroke-width:2.604"
           x="505.37839"
           y="320.31799">ds</tspan></text></g><a
       id="a59"><use
         x="0"
         y="0"
         xlink:href="#g59"
         id="use59"
         transform="translate(495.0512,-9.7707475)" /></a></g><g
     inkscape:groupmode="layer"
     id="layer3"
     inkscape:label="gradiente circle"
     sodipodi:insensitive="true"
     style="display:inline"><circle
       style="font-variation-settings:normal;display:inline;vector-effect:none;fill:url(#linearGradient20);fill-opacity:1;stroke:none;stroke-width:0.703526;stroke-linecap:butt;stroke-linejoin:miter;stroke-miterlimit:4;stroke-dasharray:0.703526, 0.703526;stroke-dashoffset:0;stroke-opacity:0.843137;-inkscape-stroke:none;stop-color:#000000"
       id="path9-4"
       cx="547.89124"
       cy="470.98444"
       r="75" /><path
       style="display:inline;fill:#000000;fill-opacity:1;stroke:none;stroke-width:1.89341"
       d="m 434.05546,413.68748 4.38789,-1.02949 c -4.38561,5.30424 -9.86461,11.31431 -12.18858,18.01611 l 3.41282,-1.02951 c -3.45881,8.77129 -13.14381,21.3186 -10.41482,31.39948 2.12719,7.85777 9.48615,15.9971 14.80269,21.61931 15.33545,16.21713 36.20648,28.81671 58.50509,28.82576 5.92422,0.002 11.6967,-0.084 17.55152,-1.15819 1.85447,-0.34019 5.0221,-0.48985 6.4637,-1.89812 1.91811,-1.8738 1.34802,-7.30789 1.3366,-9.81233 -0.0457,-10.00638 -2.82091,-23.79158 -9.95737,-30.20636 -2.46783,-2.21827 -6.21461,-0.032 -9.05639,0.26333 -4.21081,0.43735 -8.81138,-1.06618 -12.67611,-2.7191 -19.70215,-8.4265 -20.57944,-34.76255 -2.92526,-46.60869 v -0.51476 l -1.46263,-1.02946 5.85052,-2.05901 -6.82559,-3.08846 4.38787,-2.05899 -10.23838,-2.05898 c 10.51991,-14.53735 28.08093,-21.42914 44.85389,-21.61734 7.03669,-0.079 16.65094,0.86296 19.01415,9.26344 5.58474,-4.13661 8.80647,-6.24588 15.1138,-1.81908 1.1164,0.78352 2.78784,2.06897 3.60617,0.18871 2.28475,-5.24982 -3.37205,-10.85291 -7.01896,-13.19194 -10.37356,-6.65344 -22.31703,-8.78186 -34.12796,-10.2532 -27.21526,-3.39034 -51.07134,9.51344 -69.71855,29.19352 -4.00831,4.23035 -9.88182,8.14516 -12.67611,13.38342 m 69.7381,-18.0892 c -6.87085,3.09177 -2.23859,15.28299 4.85402,12.35031 7.57247,-3.1311 2.66324,-15.73295 -4.85402,-12.35031 m 42.43503,2.60391 c -2.88666,1.09682 -4.21412,8.59724 -0.0383,7.326 3.37178,-1.02652 3.88883,-8.78906 0.0383,-7.326 m -17.10237,37.10459 c 5.47505,4.15618 8.22502,10.47005 13.1847,14.77153 3.98749,3.45827 8.80247,2.61589 9.57631,9.4215 0.77379,6.80542 -3.3226,12.61828 -4.2344,19.04559 5.41739,-0.58963 10.1278,-6.56336 13.32653,-10.80967 10.09054,-13.39512 12.96132,-30.48588 8.32548,-46.84181 -1.44808,-5.109 -4.80952,-15.77937 -9.95813,-17.94583 -3.57779,-1.5055 -10.27482,7.67534 -13.64405,9.26664 -5.25418,2.48154 -9.85201,5.54749 -13.11247,10.73816 -1.26607,2.01554 -1.64959,6.41388 -3.26873,7.83798 -1.85926,1.63529 -5.59956,0.47929 -7.97671,2.34852 -7.06662,5.55674 -15.12543,21.18432 -11.48511,30.47838 4.54206,11.59634 23.62458,5.10095 30.96761,0.50718 2.14954,-1.34472 7.33969,-4.32828 7.71493,-7.23026 0.3494,-2.70263 -7.95012,-3.47076 -9.66473,-4.59853 -4.36082,-2.86829 -7.69355,-12.10777 -9.75123,-16.98938 z"
       id="path4-7"
       inkscape:label="arara"
       clip-path="url(#clipPath21)"
       transform="translate(42.149591,37.474031)" /></g><g
     inkscape:groupmode="layer"
     id="g5"
     inkscape:label="logo 1-gray"
     transform="translate(50.443887,161.867)"
     style="display:inline"
     sodipodi:insensitive="true"><rect
       style="display:inline;fill:url(#linearGradient6);stroke:none;stroke-width:0.703526;stroke-dasharray:0.703526, 0.703526;stroke-opacity:0.843137"
       id="rect4"
       width="156.17856"
       height="150.71439"
       x="213.91426"
       y="45.388382"
       ry="17.852905"
       inkscape:label="retangulo" /><path
       style="display:inline;fill:#000000;fill-opacity:0.578431;stroke:none;stroke-width:1.96492"
       d="m 219.4051,95.888352 4.55362,-1.06838 c -4.55127,5.504608 -10.23723,11.741708 -12.64898,18.696648 l 3.54172,-1.06839 c -3.58945,9.10262 -13.64031,22.12391 -10.80824,32.58559 2.20755,8.15459 9.84449,16.60138 15.36188,22.43596 15.91473,16.82973 37.57414,29.90524 60.71507,29.91464 6.14801,0.002 12.13853,-0.0873 18.21453,-1.20194 1.92451,-0.35304 5.21179,-0.50835 6.70784,-1.96982 1.99057,-1.94459 1.39895,-7.58394 1.3871,-10.18299 -0.0474,-10.38436 -2.92747,-24.69028 -10.3335,-31.34738 -2.56105,-2.30206 -6.44938,-0.0332 -9.3985,0.27328 -4.36986,0.45387 -9.14421,-1.10646 -13.15494,-2.82182 -20.44638,-8.7448 -21.35681,-36.07569 -3.03575,-48.36931 v -0.5342 l -1.51789,-1.06836 6.07151,-2.136778 -7.08341,-3.20513 4.55362,-2.13677 -10.62513,-2.13674 c 10.9173,-15.08649 29.14167,-22.238614 46.54822,-22.433937 7.30249,-0.08204 17.27991,0.895581 19.73239,9.613377 5.79571,-4.29287 9.13914,-6.48182 15.68472,-1.88779 1.15858,0.81312 2.89315,2.14712 3.74239,0.19584 2.37104,-5.44813 -3.49943,-11.262886 -7.2841,-13.690277 -10.76542,-6.904765 -23.16003,-9.113576 -35.41712,-10.640494 -28.2433,-3.518405 -53.00052,9.872796 -72.35213,30.296291 -4.15971,4.39014 -10.25508,8.45284 -13.15492,13.88895 m 72.37241,-18.7725 c -7.1304,3.20857 -2.32315,15.86029 5.03736,12.81684 7.85852,-3.24937 2.76384,-16.32725 -5.03736,-12.81684 m 44.03797,2.70227 c -2.99569,1.13826 -4.3733,8.922 -0.0398,7.60274 3.49916,-1.06529 4.03574,-9.12106 0.0398,-7.60274 m -17.74839,38.506188 c 5.68186,4.31318 8.5357,10.86556 13.68275,15.32952 4.1381,3.58892 9.13496,2.71469 9.93804,9.7774 0.80302,7.06249 -3.44811,13.09494 -4.39436,19.76502 5.62203,-0.6119 10.51038,-6.81128 13.82993,-11.21799 10.47171,-13.90114 13.45093,-31.63748 8.63998,-48.61125 -1.50278,-5.301988 -4.9912,-16.375408 -10.33429,-18.623708 -3.71295,-1.56236 -10.66295,7.96526 -14.15945,9.61667 -5.45265,2.57528 -10.22417,5.757038 -13.6078,11.143788 -1.31387,2.09167 -1.71189,6.65616 -3.39219,8.13405 -1.92949,1.69706 -5.81109,0.4974 -8.27803,2.43724 -7.33356,5.76663 -15.69678,21.98453 -11.91895,31.62969 4.71362,12.03439 24.51699,5.29363 32.13738,0.52634 2.23075,-1.39552 7.61696,-4.49178 8.00636,-7.50338 0.36261,-2.80473 -8.25042,-3.60188 -10.0298,-4.77225 -4.52555,-2.97663 -7.98417,-12.56514 -10.11957,-17.63114 z"
       id="path5"
       inkscape:label="arara" /></g><g
     inkscape:groupmode="layer"
     id="g6"
     inkscape:label="logo 1-dark blue"
     transform="translate(5.6832394,170.19456)"
     style="display:inline"
     sodipodi:insensitive="true"><rect
       style="display:inline;fill:url(#linearGradient7);stroke:none;stroke-width:0.703526;stroke-dasharray:0.703526, 0.703526;stroke-opacity:0.843137"
       id="rect5"
       width="156.17856"
       height="150.71439"
       x="53.608688"
       y="203.61206"
       ry="17.852905"
       inkscape:label="retangulo" /><path
       style="display:inline;fill:#000652;fill-opacity:1;stroke:none;stroke-width:1.96492"
       d="m 59.099517,254.11204 4.553629,-1.06838 c -4.551278,5.50461 -10.23723,11.74171 -12.648986,18.69665 l 3.541726,-1.06839 c -3.589456,9.10262 -13.640316,22.12391 -10.80824,32.58558 2.207544,8.15459 9.844485,16.60138 15.361871,22.43596 15.91473,16.82973 37.574145,29.90524 60.715073,29.91464 6.14801,0.002 12.13853,-0.0873 18.21453,-1.20194 1.92451,-0.35304 5.21179,-0.50835 6.70784,-1.96982 1.99057,-1.94459 1.39895,-7.58394 1.3871,-10.18299 -0.0474,-10.38436 -2.92747,-24.69028 -10.3335,-31.34738 -2.56105,-2.30206 -6.44938,-0.0332 -9.3985,0.27328 -4.36986,0.45387 -9.14421,-1.10646 -13.15494,-2.82182 -20.446378,-8.7448 -21.356808,-36.07568 -3.03575,-48.3693 v -0.5342 l -1.51789,-1.06836 6.07151,-2.13678 -7.08341,-3.20513 4.55362,-2.13677 -10.62513,-2.13674 c 10.9173,-15.08649 29.14167,-22.23862 46.54822,-22.43394 7.30249,-0.082 17.27991,0.89558 19.73239,9.61338 5.79571,-4.29287 9.13914,-6.48182 15.68472,-1.88779 1.15858,0.81312 2.89315,2.14712 3.74239,0.19584 2.37104,-5.44813 -3.49943,-11.26289 -7.2841,-13.69028 -10.76542,-6.90477 -23.16003,-9.11358 -35.41712,-10.64049 -28.2433,-3.51841 -53.000518,9.87279 -72.352132,30.29629 -4.159703,4.39014 -10.255074,8.45284 -13.154921,13.88895 m 72.372413,-18.7725 c -7.1304,3.20857 -2.32315,15.86029 5.03736,12.81684 7.85852,-3.24937 2.76384,-16.32725 -5.03736,-12.81684 m 44.03797,2.70227 c -2.99569,1.13826 -4.3733,8.922 -0.0398,7.60274 3.49916,-1.06529 4.03574,-9.12106 0.0398,-7.60274 m -17.74839,38.50619 c 5.68186,4.31318 8.5357,10.86556 13.68275,15.32952 4.1381,3.58892 9.13496,2.71469 9.93804,9.77739 0.80302,7.06249 -3.44811,13.09494 -4.39436,19.76502 5.62203,-0.6119 10.51038,-6.81128 13.82993,-11.21799 10.47171,-13.90113 13.45093,-31.63747 8.63998,-48.61124 -1.50278,-5.30199 -4.9912,-16.37541 -10.33429,-18.62371 -3.71295,-1.56236 -10.66295,7.96526 -14.15945,9.61667 -5.45265,2.57528 -10.22417,5.75704 -13.6078,11.14379 -1.31387,2.09167 -1.71189,6.65616 -3.39219,8.13405 -1.92949,1.69706 -5.81109,0.4974 -8.27803,2.43724 -7.33356,5.76663 -15.69678,21.98453 -11.91895,31.62968 4.71362,12.03439 24.51699,5.29363 32.13738,0.52634 2.23075,-1.39552 7.61696,-4.49178 8.00636,-7.50338 0.36261,-2.80472 -8.25042,-3.60187 -10.0298,-4.77224 -4.52555,-2.97663 -7.98417,-12.56514 -10.11957,-17.63114 z"
       id="path6"
       inkscape:label="arara" /></g><g
     inkscape:groupmode="layer"
     id="g7"
     inkscape:label="logo 1-white"
     transform="translate(182.64394,166.03078)"
     style="display:inline"
     sodipodi:insensitive="true"><rect
       style="display:inline;fill:url(#linearGradient8);stroke:none;stroke-width:0.703526;stroke-dasharray:0.703526, 0.703526;stroke-opacity:0.843137"
       id="rect7"
       width="156.17856"
       height="150.71439"
       x="53.608688"
       y="203.61206"
       ry="17.852905"
       inkscape:label="retangulo" /><path
       style="display:inline;fill:#81cd8a;fill-opacity:1;stroke:none;stroke-width:1.96492"
       d="m 59.099517,254.11204 4.553629,-1.06838 c -4.551278,5.50461 -10.23723,11.74171 -12.648986,18.69665 l 3.541726,-1.06839 c -3.589456,9.10262 -13.640316,22.12391 -10.80824,32.58558 2.207544,8.15459 9.844485,16.60138 15.361871,22.43596 15.91473,16.82973 37.574145,29.90524 60.715073,29.91464 6.14801,0.002 12.13853,-0.0873 18.21453,-1.20194 1.92451,-0.35304 5.21179,-0.50835 6.70784,-1.96982 1.99057,-1.94459 1.39895,-7.58394 1.3871,-10.18299 -0.0474,-10.38436 -2.92747,-24.69028 -10.3335,-31.34738 -2.56105,-2.30206 -6.44938,-0.0332 -9.3985,0.27328 -4.36986,0.45387 -9.14421,-1.10646 -13.15494,-2.82182 -20.446378,-8.7448 -21.356808,-36.07568 -3.03575,-48.3693 v -0.5342 l -1.51789,-1.06836 6.07151,-2.13678 -7.08341,-3.20513 4.55362,-2.13677 -10.62513,-2.13674 c 10.9173,-15.08649 29.14167,-22.23862 46.54822,-22.43394 7.30249,-0.082 17.27991,0.89558 19.73239,9.61338 5.79571,-4.29287 9.13914,-6.48182 15.68472,-1.88779 1.15858,0.81312 2.89315,2.14712 3.74239,0.19584 2.37104,-5.44813 -3.49943,-11.26289 -7.2841,-13.69028 -10.76542,-6.90477 -23.16003,-9.11358 -35.41712,-10.64049 -28.2433,-3.51841 -53.000518,9.87279 -72.352132,30.29629 -4.159703,4.39014 -10.255074,8.45284 -13.154921,13.88895 m 72.372413,-18.7725 c -7.1304,3.20857 -2.32315,15.86029 5.03736,12.81684 7.85852,-3.24937 2.76384,-16.32725 -5.03736,-12.81684 m 44.03797,2.70227 c -2.99569,1.13826 -4.3733,8.922 -0.0398,7.60274 3.49916,-1.06529 4.03574,-9.12106 0.0398,-7.60274 m -17.74839,38.50619 c 5.68186,4.31318 8.5357,10.86556 13.68275,15.32952 4.1381,3.58892 9.13496,2.71469 9.93804,9.77739 0.80302,7.06249 -3.44811,13.09494 -4.39436,19.76502 5.62203,-0.6119 10.51038,-6.81128 13.82993,-11.21799 10.47171,-13.90113 13.45093,-31.63747 8.63998,-48.61124 -1.50278,-5.30199 -4.9912,-16.37541 -10.33429,-18.62371 -3.71295,-1.56236 -10.66295,7.96526 -14.15945,9.61667 -5.45265,2.57528 -10.22417,5.75704 -13.6078,11.14379 -1.31387,2.09167 -1.71189,6.65616 -3.39219,8.13405 -1.92949,1.69706 -5.81109,0.4974 -8.27803,2.43724 -7.33356,5.76663 -15.69678,21.98453 -11.91895,31.62968 4.71362,12.03439 24.51699,5.29363 32.13738,0.52634 2.23075,-1.39552 7.61696,-4.49178 8.00636,-7.50338 0.36261,-2.80472 -8.25042,-3.60187 -10.0298,-4.77224 -4.52555,-2.97663 -7.98417,-12.56514 -10.11957,-17.63114 z"
       id="path7"
       inkscape:label="arara" /></g></svg>
