<?xml version="1.0" encoding="UTF-8" standalone="no"?>
<!-- Created with Inkscape (http://www.inkscape.org/) -->

<svg
   width="512"
   height="512"
   viewBox="0 0 512 512"
   version="1.1"
   id="svg1"
   inkscape:version="1.4.2 (f4327f4, 2025-05-13)"
   sodipodi:docname="duplistatus_newlogo2.svg"
   inkscape:export-filename="duplistatus_newlogo.png"
   inkscape:export-xdpi="96"
   inkscape:export-ydpi="96"
   xmlns:inkscape="http://www.inkscape.org/namespaces/inkscape"
   xmlns:sodipodi="http://sodipodi.sourceforge.net/DTD/sodipodi-0.dtd"
   xmlns:xlink="http://www.w3.org/1999/xlink"
   xmlns="http://www.w3.org/2000/svg"
   xmlns:svg="http://www.w3.org/2000/svg">
  <sodipodi:namedview
     id="namedview1"
     pagecolor="#ffffff"
     bordercolor="#000000"
     borderopacity="0.25"
     inkscape:showpageshadow="2"
     inkscape:pageopacity="0.0"
     inkscape:pagecheckerboard="0"
     inkscape:deskcolor="#d1d1d1"
     inkscape:document-units="px"
     inkscape:zoom="0.88112138"
     inkscape:cx="571.43092"
     inkscape:cy="451.12967"
     inkscape:window-width="1920"
     inkscape:window-height="1009"
     inkscape:window-x="1912"
     inkscape:window-y="-8"
     inkscape:window-maximized="1"
     inkscape:current-layer="layer1" />
  <defs
     id="defs1">
    <linearGradient
       id="linearGradient2"
       inkscape:collect="always">
      <stop
         style="stop-color:#051ca8;stop-opacity:1;"
         offset="0"
         id="stop2" />
      <stop
         style="stop-color:#068a1c;stop-opacity:1;"
         offset="0.9982456"
         id="stop3" />
    </linearGradient>
    <inkscape:perspective
       sodipodi:type="inkscape:persp3d"
       inkscape:vp_x="673.42076 : 183.56662 : 1"
       inkscape:vp_y="17.702429 : -999.8433 : 0"
       inkscape:vp_z="266.62951 : 220.24592 : 1"
       inkscape:persp3d-origin="484.16343 : 286.02247 : 1"
       id="perspective4" />
    <linearGradient
       id="linearGradient12"
       inkscape:collect="always">
      <stop
         style="stop-color:#000000;stop-opacity:1;"
         offset="0"
         id="stop12" />
      <stop
         style="stop-color:#000000;stop-opacity:0;"
         offset="1"
         id="stop13" />
    </linearGradient>
    <rect
       x="258.40752"
       y="130.80878"
       width="66.60815"
       height="218.28213"
       id="rect2" />
    <rect
       x="19.260188"
       y="17.655172"
       width="479.09718"
       height="482.30721"
       id="rect1" />
    <linearGradient
       inkscape:collect="always"
       xlink:href="#linearGradient12"
       id="linearGradient13"
       x1="83.308487"
       y1="267.08635"
       x2="433.50876"
       y2="267.08635"
       gradientUnits="userSpaceOnUse" />
    <linearGradient
       inkscape:collect="always"
       xlink:href="#linearGradient2"
       id="linearGradient4"
       gradientUnits="userSpaceOnUse"
       x1="505.34625"
       y1="366.63838"
       x2="992.41099"
       y2="366.63838"
       gradientTransform="matrix(0.86012449,0,0,0.86012449,-533.9389,128.34869)" />
    <linearGradient
       inkscape:collect="always"
       xlink:href="#linearGradient2"
       id="linearGradient3-7"
       x1="505.34625"
       y1="366.63837"
       x2="992.41101"
       y2="366.63837"
       gradientUnits="userSpaceOnUse" />
  </defs>
  <g
     inkscape:label="Layer 1"
     inkscape:groupmode="layer"
     id="layer1">
    <path
       id="text1-8"
       style="font-size:200px;font-family:'Airswing  Headline';-inkscape-font-specification:'Airswing  Headline';text-align:center;white-space:pre;display:none;fill:#73feff;stroke-width:2.22142;stroke-dasharray:2.22142, 2.22142;stroke-opacity:0.843137"
       sodipodi:type="inkscape:offset"
       inkscape:radius="-2.3931739"
       inkscape:original="M 239.93555 109.64844 L 237.60156 110.04297 C 222.00593 112.6827 206.40973 115.3191 190.81445 117.96094 L 190.81445 200.80859 C 161.0521 205.97023 131.28382 211.09774 101.52539 216.28125 C 90.413245 218.33654 79.763168 223.00674 70.890625 230.03125 C 62.951801 236.26008 56.459307 244.18325 51.244141 252.78516 C 49.307915 256.00087 47.742167 259.4609 46.923828 263.13672 C 44.990576 271.30546 44.553162 279.73662 44.375 288.10156 C 44.261965 297.98916 44.394819 307.93818 46.019531 317.71484 C 46.76143 322.04885 47.844806 326.38913 50.007812 330.25391 C 52.645108 335.13255 55.894398 339.6633 59.398438 343.95312 C 66.789462 352.9253 76.264125 360.25257 87.044922 364.67578 C 92.937003 367.15283 99.180879 368.68402 105.48633 369.65625 C 150.30271 377.35734 195.11933 385.05765 239.93555 392.75977 L 239.93555 344.27148 C 197.72906 337.08133 155.5228 329.88987 113.31641 322.69922 C 107.82056 321.82823 102.20232 319.58824 98.523438 315.21875 C 96.563583 312.89871 95.007161 310.13902 94.595703 307.0918 C 93.951058 303.33679 93.806923 299.47469 93.722656 295.74023 C 93.668576 292.52327 93.689483 289.10655 93.820312 286.05664 C 94.042766 282.36995 94.181478 278.59793 95.388672 275.07422 C 97.327303 270.43316 101.16699 266.69583 105.77539 264.71875 C 109.93392 262.81082 114.49369 262.4002 118.93555 261.58594 C 159.26893 254.7144 199.60207 247.84175 239.93555 240.9707 L 239.93555 109.64844 z M 453.28516 158.69922 C 452.50586 158.83333 451.72656 158.96745 450.94727 159.10156 C 405.67808 166.87272 360.405 174.619 315.13867 182.40625 C 303.46145 184.48056 292.27245 189.44987 283.08984 196.98438 C 275.47362 203.16504 269.22909 210.90799 264.18945 219.29102 C 262.3271 222.42226 260.83442 225.79021 260.04297 229.35742 C 258.10103 237.55583 257.66606 246.01852 257.49219 254.41406 C 257.41039 262.41983 257.56343 270.42566 257.58203 278.43164 C 257.62253 284.75963 257.6615 291.08803 257.70312 297.41602 C 274.07214 294.64438 290.44182 291.87682 306.81055 289.10352 C 306.83185 277.37512 306.76656 265.64604 306.84766 253.91797 C 306.89856 249.39888 306.9883 244.71393 308.85352 240.51172 C 310.87372 236.10866 314.74959 232.74976 319.18555 230.91016 C 323.83617 228.86892 328.95318 228.46021 333.89062 227.5293 C 373.68914 220.74865 413.48655 213.96763 453.28516 207.1875 L 453.28516 158.69922 z M 353.77539 253.04492 C 347.95158 253.24191 342.25101 255.49716 337.8457 259.30664 C 333.52755 262.91435 330.30111 267.94952 329.36719 273.54297 C 328.1912 280.2446 329.51873 287.51787 333.66016 293.00586 C 337.97756 298.90965 345.02332 302.57979 352.27148 303.17578 C 358.50748 303.7497 365.0265 302.39999 370.19531 298.76562 C 375.66909 295.04397 379.58348 289.04363 380.52734 282.4668 C 381.48769 276.3607 380.40908 269.80261 376.83789 264.67578 C 374.46328 261.24742 371.31729 258.32825 367.69922 256.25 C 363.49946 253.83227 358.59392 252.83344 353.77539 253.04492 z M 453.26758 261.4375 C 452.49219 261.57227 451.7168 261.70703 450.94141 261.8418 C 435.34832 264.56064 419.75511 267.27873 404.16211 269.99805 C 404.14391 278.92959 404.19917 287.86201 404.13477 296.79297 C 404.02242 300.23934 403.99758 303.69057 403.88086 307.13477 C 403.30038 312.61789 400.59985 317.99233 396.08203 321.26367 C 392.00518 324.30343 386.95675 325.60295 382.00195 326.33203 C 340.5637 333.39133 299.12583 340.45093 257.6875 347.50977 L 257.6875 396 C 303.73674 388.09093 349.79131 380.21496 395.83789 372.29102 C 407.09121 370.26907 417.87258 365.54648 426.85352 358.44922 C 434.48259 352.48539 440.78949 344.97093 445.98633 336.83398 C 448.15487 333.40826 449.92004 329.69831 450.83203 325.73242 C 452.79535 317.75104 453.2469 309.49403 453.4668 301.30664 C 453.5882 293.14843 453.40206 284.98857 453.38086 276.83008 C 453.34336 271.69892 453.30571 266.56865 453.26758 261.4375 z M 214.70312 267.39258 C 208.94851 267.59035 203.3055 269.78532 198.92969 273.52734 C 194.53372 277.14268 191.24127 282.2291 190.29688 287.88867 C 189.11418 294.6231 190.46529 301.93551 194.65039 307.43359 C 198.95414 313.26309 205.92379 316.90143 213.10547 317.51172 C 219.37127 318.11236 225.92983 316.76457 231.125 313.11133 C 236.59878 309.39069 240.51436 303.38942 241.45508 296.8125 C 242.43126 290.64282 241.31038 284.00871 237.6543 278.85938 C 235.10761 275.25515 231.72454 272.20544 227.8125 270.14844 C 223.79654 268.05041 219.21178 267.19675 214.70312 267.39258 z "
       d="m 237.54297,112.48047 c -14.77943,2.50152 -29.55757,4.99893 -44.33594,7.50195 v 80.82617 a 2.3934133,2.3934133 0 0 1 -1.98437,2.35743 c -29.75572,5.16049 -59.51468,10.28725 -89.26172,15.46875 -10.743513,1.9871 -21.037433,6.50701 -29.583987,13.27343 a 2.3934133,2.3934133 0 0 1 -0.0098,0.006 c -7.661952,6.0116 -13.979752,13.70528 -19.076171,22.11133 -1.837278,3.05246 -3.284889,6.27835 -4.03125,9.63086 a 2.3934133,2.3934133 0 0 1 -0.0078,0.0312 c -1.866598,7.8871 -2.307204,16.14647 -2.484375,24.46094 -2.8e-5,0.001 2.8e-5,0.003 0,0.004 -0.112042,9.8359 0.02928,19.631 1.611328,29.15821 3.51e-4,0.002 0.0016,0.004 0.002,0.006 3.18e-4,0.002 -3.17e-4,0.004 0,0.006 0.721279,4.20977 1.760283,8.27133 3.714844,11.76367 a 2.3934133,2.3934133 0 0 1 0.01758,0.0293 c 2.541012,4.70053 5.698355,9.11242 9.138672,13.32422 7.158509,8.6876 16.326479,15.7649 26.701172,20.02149 a 2.3934133,2.3934133 0 0 1 0.01953,0.008 c 5.660067,2.37951 11.712309,3.87145 17.878904,4.82227 a 2.3934133,2.3934133 0 0 1 0.041,0.006 c 43.88344,7.54078 87.767,15.08132 131.65039,22.62305 v -43.6289 c -41.534,-7.07563 -83.06773,-14.15245 -124.60156,-21.22852 -5.87333,-0.93081 -12.05554,-3.3232 -16.248051,-8.30273 -2.157188,-2.55448 -3.970025,-5.69357 -4.464843,-9.3379 -0.669934,-3.94141 -0.814152,-7.89167 -0.898438,-11.62695 a 2.3934133,2.3934133 0 0 1 0,-0.0137 c -0.05473,-3.2558 -0.03403,-6.71266 0.09961,-9.82813 a 2.3934133,2.3934133 0 0 1 0.002,-0.041 c 0.220145,-3.64843 0.334669,-7.64737 1.693359,-11.61328 a 2.3934133,2.3934133 0 0 1 0.05469,-0.14649 c 2.191582,-5.24662 6.467979,-9.39607 11.625003,-11.61718 4.63443,-2.1193 9.41106,-2.51665 13.69922,-3.30274 a 2.3934133,2.3934133 0 0 1 0.0293,-0.006 c 39.66989,-6.7585 79.3397,-13.5173 119.00977,-20.27539 z m 213.34961,49.05859 c -45.11711,7.74488 -90.2357,15.46587 -135.34766,23.22656 -11.284,2.00653 -22.09613,6.81385 -30.9375,14.06836 a 2.3934133,2.3934133 0 0 1 -0.01,0.008 c -7.35092,5.96536 -13.42747,13.48309 -18.35157,21.67187 -7.5e-4,0.001 -0.001,0.003 -0.002,0.004 -0.001,0.002 -0.003,0.004 -0.004,0.006 -1.76133,2.96321 -3.1395,6.09817 -3.86132,9.35156 a 2.3934133,2.3934133 0 0 1 -0.008,0.0332 c -1.87513,7.91636 -2.31345,16.20718 -2.48632,24.55274 -2e-5,6.5e-4 10e-6,0.001 0,0.002 -0.0808,7.95127 0.0712,15.93797 0.0898,23.96289 0.0345,5.38693 0.0687,10.7739 0.10351,16.16016 14.78087,-2.50233 29.56197,-5.00218 44.3418,-7.50586 0.0114,-11.04613 -0.0414,-22.10382 0.0352,-33.17774 a 2.3934133,2.3934133 0 0 1 0,-0.0117 c 0.051,-4.53214 0.0897,-9.57056 2.21094,-14.3496 a 2.3934133,2.3934133 0 0 1 0.0117,-0.0274 c 2.30813,-5.03059 6.64713,-8.75521 11.57032,-10.80273 5.12738,-2.24467 10.43944,-2.63579 15.19922,-3.53321 a 2.3934133,2.3934133 0 0 1 0.041,-0.008 c 39.13504,-6.66761 78.26915,-13.33481 117.4043,-20.00195 z m -97.01172,93.89649 a 2.3934133,2.3934133 0 0 1 -0.0254,0.002 c -5.25977,0.17791 -10.45917,2.23268 -14.44531,5.67969 a 2.3934133,2.3934133 0 0 1 -0.0293,0.0254 c -3.92749,3.28132 -6.82745,7.85447 -7.65234,12.79492 a 2.3934133,2.3934133 0 0 1 -0.004,0.0195 c -1.07205,6.10931 0.16856,12.73468 3.8457,17.60742 a 2.3934133,2.3934133 0 0 1 0.0215,0.0293 c 3.86404,5.28386 10.30033,8.65665 16.875,9.19727 a 2.3934133,2.3934133 0 0 1 0.0234,0.002 c 5.74346,0.52859 11.70575,-0.73422 16.32813,-3.98438 a 2.3934133,2.3934133 0 0 1 0.0312,-0.0215 c 4.9234,-3.34745 8.46783,-8.8017 9.30859,-14.66016 a 2.3934133,2.3934133 0 0 1 0.006,-0.0312 c 0.87676,-5.57461 -0.13578,-11.52586 -3.28906,-16.05273 a 2.3934133,2.3934133 0 0 1 -0.004,-0.004 c -2.17332,-3.13775 -5.06495,-5.82025 -8.36328,-7.71484 a 2.3934133,2.3934133 0 0 1 -0.002,0 c -3.74842,-2.1579 -8.20732,-3.08256 -12.625,-2.88867 z m 97.01562,8.84375 c -14.78184,2.57737 -29.56215,5.15275 -44.34375,7.73047 -0.008,8.25297 0.0343,16.51892 -0.0254,24.80078 a 2.3934133,2.3934133 0 0 1 0,0.0605 c -0.11103,3.40585 -0.13574,6.85891 -0.2539,10.34571 a 2.3934133,2.3934133 0 0 1 -0.0137,0.16992 c -0.64444,6.08724 -3.6095,12.06611 -8.75977,15.80273 -4.57146,3.404 -10.02631,4.75578 -15.15039,5.50977 l 0.0547,-0.008 c -40.77478,6.94627 -81.54933,13.89204 -122.32422,20.83789 v 43.63086 c 45.11227,-7.74683 90.22717,-15.46241 135.33398,-23.22461 0.006,-0.001 0.0117,-0.003 0.0176,-0.004 10.87039,-1.95607 21.28708,-6.52331 29.9375,-13.35937 a 2.3934133,2.3934133 0 0 1 0.01,-0.008 c 7.36479,-5.75724 13.50601,-13.05953 18.58984,-21.01953 2.06215,-3.25926 3.69812,-6.72664 4.53125,-10.34961 a 2.3934133,2.3934133 0 0 1 0.008,-0.0351 c 1.89205,-7.69165 2.34769,-15.77402 2.56641,-23.91602 0.11963,-8.08524 -0.0645,-16.21888 -0.0859,-24.39648 v -0.0117 c -0.0306,-4.18575 -0.0608,-8.37118 -0.0918,-12.55664 z m -236.08984,5.5039 a 2.3934133,2.3934133 0 0 1 -0.0215,0.002 c -5.20081,0.17873 -10.34603,2.17859 -14.30079,5.56054 a 2.3934133,2.3934133 0 0 1 -0.0352,0.0293 c -3.99823,3.28823 -6.95694,7.90972 -7.79102,12.9082 a 2.3934133,2.3934133 0 0 1 -0.004,0.0195 c -1.07794,6.13791 0.18434,12.79978 3.90039,17.68164 a 2.3934133,2.3934133 0 0 1 0.0215,0.0274 c 3.85308,5.21905 10.22018,8.56183 16.73242,9.11523 a 2.3934133,2.3934133 0 0 1 0.0254,0.002 c 5.76939,0.55305 11.76758,-0.7072 16.41407,-3.97461 a 2.3934133,2.3934133 0 0 1 0.0312,-0.0215 c 4.92312,-3.34634 8.46882,-8.80071 9.30664,-14.6582 a 2.3934133,2.3934133 0 0 1 0.006,-0.0352 c 0.8906,-5.62882 -0.16065,-11.64886 -3.38868,-16.19531 a 2.3934133,2.3934133 0 0 1 -0.004,-0.004 c -2.33743,-3.30807 -5.44734,-6.10462 -9,-7.97265 -3.58831,-1.87321 -7.75751,-2.66398 -11.89258,-2.48438 z"
       transform="translate(7.2618811,-8.480469)"
       sodipodi:insensitive="true" />
    <text
       xml:space="preserve"
       style="font-style:normal;font-variant:normal;font-weight:normal;font-stretch:normal;font-size:280.989px;line-height:normal;font-family:'Airswing  Headline';-inkscape-font-specification:'Airswing  Headline, Normal';font-variant-ligatures:normal;font-variant-position:normal;font-variant-caps:normal;font-variant-numeric:normal;font-variant-alternates:normal;font-variant-east-asian:normal;font-feature-settings:normal;font-variation-settings:normal;text-indent:0;text-align:start;text-decoration-line:none;text-decoration-style:solid;text-decoration-color:#000000;letter-spacing:normal;word-spacing:normal;text-transform:none;writing-mode:lr-tb;direction:ltr;text-orientation:mixed;dominant-baseline:auto;baseline-shift:baseline;text-anchor:start;white-space:normal;opacity:1;vector-effect:none;fill:url(#linearGradient4);fill-opacity:1;stroke:none;stroke-width:0;stroke-linecap:butt;stroke-linejoin:miter;stroke-miterlimit:4;stroke-dasharray:none;stroke-dashoffset:0;stroke-opacity:0.843137;-inkscape-stroke:none;stop-color:#000000;stop-opacity:1"
       x="1.0023981"
       y="418.27124"
       id="text4"><tspan
         sodipodi:role="line"
         id="tspan4"
         x="1.0023981"
         y="418.27124"
         style="fill:url(#linearGradient4);stroke-width:0">ds</tspan></text>
  </g>
</svg>
